<svg xmlns="http://www.w3.org/2000/svg" fill="none" viewBox="0 0 450 578">
  <defs/>
  <g stroke="#fff" stroke-miterlimit="10" clip-path="url(#clip0)">
    <path stroke-width="2" d="M204.806 573.085s55.652-1.864 139.359-2.571c77.254-.646 78.734-88.859 78.734-88.859s-63.781 23.434-79.514 88.971c0 0 5.672-101.092 71.706-148.881 0 0-.845 48.038-6.545 66.838M260.688 267.436s-22.609 16.554-21.204 51.244c1.405 34.689 20.925 46.413 20.925 46.413l-6.042 17.171M279.843 407.458c13.505.228 19.171-5.948 15.328-16.109"/>
    <path stroke-width="2" d="M277.05 506.541s6.235 61.903-59.492 66.22c0 0-67.27 1.801-126.384 2.516-59.113.715-80.423-71.791-82.692-96.483 0 0 15.63 11.617 34.146 30.057 17.226 17.178 35.907 40.906 47.811 66.06 0 0-44.09-93.939-2.96-189.845 0 0 42.863 68.316 3.989 189.204"/>
    <path stroke-width="2" d="M70.19 473.47s-14.548-45.622-39.927-71.311c0 0-8.902 57.407 12.348 106.692M91.162 575.651l.323-1.382c11.292-25.434 30.109-49.395 46.915-66.969 18.047-18.881 33.408-30.874 33.408-30.874-1.654 24.723-21.52 98.119-80.634 98.834"/>
    <path stroke-width="2" d="M107.753 472.982s13.965-45.951 38.699-72.229c0 0 10.07 58.794-9.981 108.578M296.255 524.444s-8.423 12.658-25.898 17.089"/>
    <path fill="#F7A08E" stroke-width="2" d="M268.421 489.582c.057 4.711 4.129 17.014 8.629 16.959 4.501-.054 7.68-12.444 7.622-17.156-.057-4.712-3.737-8.478-8.22-8.424-4.483.054-8.088 3.909-8.031 8.621zM295.875 505.599c-1.97 4.277-3.564 17.141.502 19.031 4.082 1.89 12.268-7.923 14.255-12.201 1.969-4.277.261-9.275-3.804-11.148-4.082-1.907-8.984.041-10.953 4.318zM242.231 517.613c2.409 4.037 12.126 12.613 15.971 10.303 3.844-2.309.383-14.618-2.027-18.672-2.409-4.037-7.487-5.439-11.349-3.129-3.844 2.309-5.005 7.444-2.595 11.498z"/>
    <path stroke-width="2" d="M257.975 527.46s6.367 12.393 5.43 24.807M273.604 258.262c3.93-.047 7.077-3.277 7.029-7.213-.047-3.936-3.272-7.089-7.201-7.041-3.93.047-7.077 3.277-7.029 7.213.047 3.936 3.272 7.089 7.201 7.041z"/>
    <path stroke-width="2" d="M260.94 234.921l.423 34.905c.125 10.394 3.422 24.576 17.33 24.408 13.891-.168 26.459-14.237 19.079-33.27-7.381-19.05-22.924-24.833-36.832-26.043z"/>
    <path stroke-width="2" d="M260.706 264.679l-64.208.777-.091-7.501c-.198-16.381 12.263-22.402 36.232-23.474 23.969-1.073 34.954 1.38 34.954 1.38M289.446 365.967l-1.251-3.711s33.774-44.149 9.576-101.309"/>
    <path stroke-width="2" d="M283.962 339.425c5.075-.266 7.106 4.813 5.861 8.554-.983 2.955-2.379 8.331-5.194 8.689-2.798.357-4.877-4.45-6.303-8.55-1.425-4.1.612-8.428 5.636-8.693zM264.805 339.537c-5.08-.142-6.988 4.985-5.653 8.694 1.055 2.931 2.58 8.271 5.403 8.56 2.823.29 4.768-4.566 6.094-8.699 1.326-4.133-.815-8.428-5.844-8.555z"/>
    <path stroke-width="2" d="M289.823 347.996l44.678-.659c63.119-.934 62.67-63.315 62.67-63.315s-46.05 5.168-62.67 63.315M258.916 348.37s-25.461-2.958-26.085 91.471c-.623 94.429-39.773 135.07-134.037 134.952"/>
    <path stroke-width="2" d="M233.022 428.9c12.417-92.514 111.467-58.938 111.467-58.938s-40.93 30.999-96.543 20.631c-.234.326 51.601 12.85 65.291 69.082 0 0-61.399-8.529-65.291-69.082M321.324 347.615l-1.146-94.731c-.854-70.593-47.435-82.67-95.307-82.09-47.872.579-50.341 37.969-50.341 37.969s51.106-.023 52.413-37.978"/>
    <path stroke-width="1.9" d="M252.996 172.154s-6.587-41.925-55.913-42.213c0 0 3.077 38.14 43.638 41.188"/>
    <path stroke-width="2" d="M232.639 234.481l.37 30.533M384.66 204.57s-61.944-4.44-64.356 61.498M366.248 186.249s-12.377 8.809-16.291 26.431"/>
    <path fill="#F7A08E" stroke-width="2" d="M401.849 213.106c-4.703.074-17.096-3.655-17.167-8.145-.072-4.491 12.199-8.059 16.903-8.133 4.703-.074 8.568 3.503 8.656 7.994.055 4.49-3.688 8.193-8.392 8.284zM385.048 186.072c-4.204 2.092-17.003 4.068-19.005.043-2.002-4.025 7.542-12.528 11.763-14.62 4.22-2.093 9.25-.538 11.235 3.487 1.984 4.025.227 8.997-3.993 11.09zM374.628 240.146c-4.104-2.298-12.931-11.77-10.754-15.692 2.195-3.922 14.58-.806 18.684 1.492 4.104 2.298 5.66 7.349 3.465 11.272-2.178 3.905-7.291 5.226-11.395 2.928z"/>
    <path stroke-width="2" d="M364.352 224.67s-12.556-6.007-24.905-4.718M245.397 62.088c-17.98-7.881-65.495-14.366-65.495-14.366 39.638 71.297 139.191 88.824 139.191 88.824-63.125-23.36-78.855-89.554-78.855-89.554s77.399 11.38 78.845 88.754c.102 5.596.2 10.886.294 15.904l.535 44.176M347.918 101.695s-16.078-28.966 1.248-44.266c4.1-3.622 7.853 14.604 7.853 14.604s12.639-9.612 17.073-6.722c4.434 2.89-3.964 19.068-3.964 19.068s14.129-2.978 17.048 1.087c2.92 4.065-17.354 25.576-39.258 16.229z"/>
    <path stroke-width="2" d="M374.092 65.311s18.456-18.716 38.456-23.603c19.999-4.886 29.418-26.556 2.579-14.237"/>
    <path stroke-width="2" d="M410.805 42.307c.323-1.398 11.775-33.334 3.124-33.842-8.652-.508-48.754 21.737-56.91 63.551M431.492 25.47s5.008 27.823-18.231 40.099c-23.239 12.275-40.387 12.789-40.387 12.789"/>
    <path stroke-width="2" d="M427.093 52.131s11.893.282 13.539 2.984c1.646 2.702 1.794 3.67-1.982 6.063-3.775 2.394-3.601 6.968-10.551 12.326-6.949 5.358-27.289 17.207-40.923 11.945M397.603 15.145s-1.895-12.04-6.992-12.148c-5.113-.091-7.433 3.322-8.928 6.08-1.512 2.757-2.374 3.107-8.336 8.692-5.962 5.584-18.737 22.207-19.794 42.874M349.583 101.743s-30.221 37.386-29.56 96.208l.706 59.792"/>
  </g>
  <defs>
    <clipPath id="clip0">
      <path fill="#fff" d="M0 0h442v572H0z" transform="rotate(-.693 497.303 -60.929)"/>
    </clipPath>
  </defs>
</svg>
