<svg xmlns="http://www.w3.org/2000/svg" fill="none" viewBox="0 0 32 27">
  <defs/>
  <path fill="#fff" d="M31.938 3.785c-1.176.52-2.439.871-3.764 1.028a6.559 6.559 0 002.882-3.614 13.164 13.164 0 01-4.161 1.585A6.552 6.552 0 0022.11.721c-3.619 0-6.552 2.926-6.552 6.532 0 .511.059 1.01.17 1.489A18.624 18.624 0 012.223 1.916a6.487 6.487 0 00-.887 3.285 6.522 6.522 0 002.915 5.437 6.542 6.542 0 01-2.968-.817v.082c0 3.166 2.26 5.804 5.256 6.405a6.578 6.578 0 01-2.96.11 6.555 6.555 0 006.122 4.537 13.174 13.174 0 01-8.139 2.797c-.529 0-1.05-.031-1.562-.091a18.584 18.584 0 0010.046 2.935c12.053 0 18.643-9.955 18.643-18.588 0-.284-.007-.564-.018-.844a13.27 13.27 0 003.267-3.379z"/>
</svg>
